<?xml version="1.0" encoding="UTF-8" standalone="no"?>
<svg width="220" height="80" viewBox="0 0 220 80" fill="none" xmlns="http://www.w3.org/2000/svg">
  <!-- Road path -->
  <path d="M40 10 C 80 15, 120 40, 90 60" stroke="#0d9488" stroke-width="12" fill="none" stroke-dasharray="5,5"/>
  
  <!-- Car icon -->
  <g transform="translate(35, 10) scale(0.6)">
    <rect x="2" y="2" width="16" height="8" rx="2" stroke="#1e293b" stroke-width="2" fill="none"/>
    <circle cx="5" cy="10" r="2" fill="#1e293b"/>
    <circle cx="15" cy="10" r="2" fill="#1e293b"/>
  </g>
  
  <!-- Phone outline -->
  <rect x="80" y="30" width="40" height="60" rx="5" fill="#1e293b"/>
  <rect x="85" y="35" width="30" height="45" rx="2" fill="#0d9488"/>
  
  <!-- Home icon -->
  <g transform="translate(90, 25) scale(0.5)">
    <rect x="10" y="15" width="15" height="15" stroke="white" stroke-width="2" fill="none"/>
    <path d="M5 15 L 17.5 5 L 30 15" stroke="white" stroke-width="2" fill="none"/>
  </g>
  
  <!-- Technician icon -->
  <g transform="translate(90, 45) scale(0.6)">
    <circle cx="15" cy="10" r="8" stroke="white" stroke-width="2" fill="none"/>
    <path d="M15 18 L 15 32" stroke="white" stroke-width="2" fill="none"/>
    <path d="M8 22 L 15 28 L 22 22" stroke="white" stroke-width="2" fill="none"/>
    <path d="M10 10 L 20 10" stroke="white" stroke-width="2" fill="none"/>
    <path d="M15 5 C 12 5, 12 7, 15 7 C 18 7, 18 5, 15 5" stroke="white" stroke-width="1.5" fill="none"/>
  </g>
  
  <!-- Tools icon -->
  <circle cx="102" cy="80" r="4" fill="white"/>
  <path d="M100 78 L 104 82" stroke="white" stroke-width="1.5"/>
  <path d="M104 78 L 100 82" stroke="white" stroke-width="1.5"/>
  
  <!-- Text - will be separate in the HTML for better control -->
</svg> 