<svg xmlns="http://www.w3.org/2000/svg" viewBox="0 0 160 160" width="160" height="160">
  <defs>
    <!-- Gradients for 3D effect -->
    <linearGradient id="topFace" x1="0%" y1="0%" x2="100%" y2="100%">
      <stop offset="0%" stop-color="#fb923c"/>
      <stop offset="100%" stop-color="#f97316"/>
    </linearGradient>
    
    <linearGradient id="leftFace" x1="0%" y1="0%" x2="100%" y2="0%">
      <stop offset="0%" stop-color="#ea580c"/>
      <stop offset="100%" stop-color="#c2410c"/>
    </linearGradient>
    
    <linearGradient id="rightFace" x1="0%" y1="0%" x2="100%" y2="0%">
      <stop offset="0%" stop-color="#f97316"/>
      <stop offset="100%" stop-color="#ea580c"/>
    </linearGradient>
    
    <!-- Shadow filter -->
    <filter id="shadow" x="-50%" y="-50%" width="200%" height="200%">
      <feDropShadow dx="3" dy="6" stdDeviation="3" flood-color="#7c2d12" flood-opacity="0.3"/>
    </filter>
  </defs>
  
  <g transform="translate(80,80)" filter="url(#shadow)">
    <!-- Horizontal bar of T - 3D effect -->
    
    <!-- Top face of horizontal bar -->
    <polygon points="-50,-35 50,-35 45,-30 -45,-30" fill="url(#topFace)"/>
    
    <!-- Left face of horizontal bar -->
    <polygon points="-50,-35 -45,-30 -45,-20 -50,-25" fill="url(#leftFace)"/>
    
    <!-- Right face of horizontal bar -->
    <polygon points="50,-35 50,-25 45,-20 45,-30" fill="url(#rightFace)"/>
    
    <!-- Front face of horizontal bar -->
    <polygon points="-45,-30 45,-30 45,-20 -45,-20" fill="#f97316"/>
    
    <!-- Vertical stem of T - 3D effect -->
    
    <!-- Top face of vertical stem -->
    <polygon points="-12,-25 12,-25 10,-20 -10,-20" fill="url(#topFace)"/>
    
    <!-- Left face of vertical stem -->
    <polygon points="-12,-25 -10,-20 -10,45 -12,50" fill="url(#leftFace)"/>
    
    <!-- Right face of vertical stem -->
    <polygon points="12,-25 12,50 10,45 10,-20" fill="url(#rightFace)"/>
    
    <!-- Front face of vertical stem -->
    <polygon points="-10,-20 10,-20 10,45 -10,45" fill="#f97316"/>
    
    <!-- Bottom face of vertical stem -->
    <polygon points="-10,45 10,45 12,50 -12,50" fill="url(#leftFace)"/>
    
    <!-- Decorative angular cuts for modern look -->
    
    <!-- Left corner cut -->
    <polygon points="-50,-35 -40,-35 -45,-25 -50,-25" fill="#c2410c"/>
    
    <!-- Right corner cut -->
    <polygon points="40,-35 50,-35 50,-25 45,-25" fill="#c2410c"/>
    
    <!-- Bottom accents -->
    <polygon points="-12,45 -8,40 8,40 12,45" fill="#fb923c"/>
    
    <!-- Additional depth lines -->
    <line x1="-45" y1="-30" x2="45" y2="-30" stroke="#ea580c" stroke-width="1" opacity="0.5"/>
    <line x1="-10" y1="-20" x2="-10" y2="45" stroke="#ea580c" stroke-width="1" opacity="0.5"/>
    <line x1="10" y1="-20" x2="10" y2="45" stroke="#ea580c" stroke-width="1" opacity="0.5"/>
  </g>
</svg> 