<?xml version="1.0" encoding="UTF-8" standalone="no"?>
<svg xmlns="http://www.w3.org/2000/svg" width="120" height="120" viewBox="0 0 120 120">
  <style>
    @keyframes float {
      0% { transform: translateY(0px); }
      50% { transform: translateY(-3px); }
      100% { transform: translateY(0px); }
    }
    @keyframes pulse {
      0% { opacity: 0.8; }
      50% { opacity: 1; }
      100% { opacity: 0.8; }
    }
    @keyframes drive {
      0% { transform: translateX(0); }
      50% { transform: translateX(5px); }
      100% { transform: translateX(0); }
    }
    @keyframes dash {
      to { stroke-dashoffset: -40; }
    }
    .car { animation: drive 3s ease-in-out infinite, float 2s ease-in-out infinite; }
    .road-line { animation: dash 5s linear infinite; }
    .glow { filter: drop-shadow(0px 0px 3px rgba(13,148,136,0.6)); }
    .pulse { animation: pulse 2s ease-in-out infinite; }
  </style>

  <!-- Background - gradient circle -->
  <defs>
    <linearGradient id="bg-gradient" x1="0%" y1="0%" x2="100%" y2="100%">
      <stop offset="0%" stop-color="#f0fdfa" />
      <stop offset="100%" stop-color="#f8fafc" />
    </linearGradient>
    <linearGradient id="screen-gradient" x1="0%" y1="0%" x2="100%" y2="100%">
      <stop offset="0%" stop-color="#0d9488" />
      <stop offset="100%" stop-color="#14b8a6" />
    </linearGradient>
    <filter id="glow" x="-20%" y="-20%" width="140%" height="140%">
      <feGaussianBlur stdDeviation="2" result="blur" />
      <feComposite in="SourceGraphic" in2="blur" operator="over" />
    </filter>
  </defs>
  
  <circle cx="60" cy="60" r="55" fill="url(#bg-gradient)" stroke="#e2e8f0" stroke-width="1.5" />
  
  <!-- Road path - representing travel/mobility -->
  <path class="glow" d="M 15,50 C 35,30 85,85 105,50" stroke="#0d9488" stroke-width="7" stroke-linecap="round" fill="none" />
  <path class="road-line" d="M 15,50 C 35,30 85,85 105,50" stroke="white" stroke-width="2.5" stroke-linecap="round" stroke-dasharray="5,8" fill="none" stroke-dashoffset="0" />
  
  <!-- Smartphone representing tech repair -->
  <g class="pulse">
    <rect x="50" y="45" width="24" height="42" rx="4" ry="4" fill="#1e293b" />
    <rect x="52" y="49" width="20" height="32" rx="2" ry="2" fill="url(#screen-gradient)" />
    
    <!-- Home button -->
    <circle cx="62" cy="84" r="2" fill="#f8fafc" stroke="#94a3b8" stroke-width="0.5" />
    
    <!-- Repair icon on phone screen -->
    <g filter="url(#glow)">
      <circle cx="62" cy="65" r="9" fill="white" opacity="0.9" />
      <path d="M58,61 L66,69 M66,61 L58,69" stroke="#0f172a" stroke-width="2.5" stroke-linecap="round" />
    </g>
  </g>
  
  <!-- Small car icon representing "travelling" -->
  <g class="car" transform="translate(20, 32) scale(0.7)">
    <!-- Car body -->
    <path d="M0,8 L5,0 H20 L25,8 Z" fill="#0f172a" />
    <rect x="0" y="8" width="25" height="7" rx="2" ry="2" fill="#0f172a" />
    
    <!-- Windows -->
    <path d="M6,2 H19 L22,7 H3 Z" fill="#0ea5e9" opacity="0.8" />
    
    <!-- Wheels -->
    <circle cx="6" cy="15" r="3" fill="#0f172a" stroke="#64748b" stroke-width="0.75" />
    <circle cx="19" cy="15" r="3" fill="#0f172a" stroke="#64748b" stroke-width="0.75" />
  </g>
</svg> 